$MeshFormat
4.1 0 8
$EndMeshFormat
$PhysicalNames
1
2 1 "plane"
$EndPhysicalNames
$Entities
4 4 1 0
1 -0.5 -0.5 0 0 
2 0.5 -0.5 0 0 
3 0.5 0.5 0 0 
4 -0.5 0.5 0 0 
1 -0.5000000999999999 -0.5000000999999999 -1e-07 0.5000000999999999 -0.4999999 1e-07 0 2 1 -2 
2 0.4999999 -0.5000000999999999 -1e-07 0.5000000999999999 0.5000000999999999 1e-07 0 2 2 -3 
3 -0.5000000999999999 0.4999999 -1e-07 0.5000000999999999 0.5000000999999999 1e-07 0 2 3 -4 
4 -0.5000000999999999 -0.5000000999999999 -1e-07 -0.4999999 0.5000000999999999 1e-07 0 2 4 -1 
0 -0.5000000999999999 -0.5000000999999999 -1e-07 0.5000000999999999 0.5000000999999999 1e-07 1 -1 4 1 2 3 4 
$EndEntities
$Nodes
9 98 1 98
0 1 0 1
1
-0.5 -0.5 0
0 2 0 1
2
0.5 -0.5 0
0 3 0 1
3
0.5 0.5 0
0 4 0 1
4
-0.5 0.5 0
1 1 0 7
5
6
7
8
9
10
11
-0.3750000000000002 -0.5 0
-0.2500000000000003 -0.5 0
-0.1250000000000007 -0.5 0
-1.27675647831893e-15 -0.5 0
0.1249999999999987 -0.5 0
0.2499999999999991 -0.5 0
0.3749999999999994 -0.5 0
1 2 0 7
12
13
14
15
16
17
18
0.5 -0.3750000000000002 0
0.5 -0.2500000000000003 0
0.5 -0.1250000000000007 0
0.5 -1.27675647831893e-15 0
0.5 0.1249999999999987 0
0.5 0.2499999999999991 0
0.5 0.3749999999999994 0
1 3 0 7
19
20
21
22
23
24
25
0.3750000000000002 0.5 0
0.2500000000000003 0.5 0
0.1250000000000007 0.5 0
1.27675647831893e-15 0.5 0
-0.1249999999999987 0.5 0
-0.2499999999999991 0.5 0
-0.3749999999999994 0.5 0
1 4 0 7
26
27
28
29
30
31
32
-0.5 0.3750000000000002 0
-0.5 0.2500000000000003 0
-0.5 0.1250000000000007 0
-0.5 1.27675647831893e-15 0
-0.5 -0.1249999999999987 0
-0.5 -0.2499999999999991 0
-0.5 -0.3749999999999994 0
2 0 0 66
33
34
35
36
37
38
39
40
41
42
43
44
45
46
47
48
49
50
51
52
53
54
55
56
57
58
59
60
61
62
63
64
65
66
67
68
69
70
71
72
73
74
75
76
77
78
79
80
81
82
83
84
85
86
87
88
89
90
91
92
93
94
95
96
97
98
0.06249999999999872 -0.3917468245269454 0
0.3787408590474764 0.06887882963338648 0
-0.0624999999999987 0.3917468245269455 0
-0.3892750608242198 -0.06409486310622904 0
-0.1901081464363531 -0.3929849573903611 0
0.3917468245269456 -0.1875000000000005 0
0.1871891340151977 0.3955068139135625 0
-0.381737314898208 0.1692259739230109 0
0.3119703288398898 -0.3941534943680208 0
0.379230463236312 0.3130906423764596 0
-0.3124999999999993 0.3917468245269449 0
-0.3905148078112936 -0.2966579344023305 0
0.187411721473314 -0.3921479361671245 0
0.1222382678779044 -0.2851464931728506 0
-0.0004602886870169025 -0.2837691230737177 0
0.0592159774975 -0.177147852116231 0
-0.06496004948131352 -0.1767503730770484 0
-0.0004884414952235136 -0.06727788297441564 0
0.1130571419252585 -0.06729917870853633 0
0.05698961825214009 0.04315068448065502 0
-0.06349980387384804 0.04153158107339665 0
-0.001085030936952664 0.1498774713089107 0
0.1204622660663317 0.1518781417959353 0
-0.1251266299083345 0.1495569611339229 0
-0.1876877389636974 0.04131647936589183 0
0.06249999999999754 0.2577722283113805 0
-0.2500000000000006 0.1495190528383258 0
-0.1866823184200222 0.2523710733550595 0
0.1858813604038466 0.2503445567222466 0
0.2558138451570435 0.142263876182228 0
-0.3124289467218211 0.04499751688241332 0
-0.2500000000000004 -0.06698729810778291 0
-0.3221267806278791 -0.1767859519478138 0
-0.198515985698361 -0.1821170180028854 0
-0.2624318058321284 -0.2868767533099805 0
0.264667250201037 -0.2709339938931859 0
0.391746824526945 0.1874999999999991 0
0.2774226411965255 0.0265527835888372 0
0.3628769461960453 -0.06179824718194795 0
0.2819074654780986 -0.1548089282251872 0
-0.1874999999999991 0.391746824526945 0
0.06250000000000076 0.3917468245269455 0
-0.06301140585389568 -0.3919990923408192 0
-0.1285104383320322 -0.2851050089195418 0
-0.1275253365854073 -0.0683807519538073 0
-0.06250000000000172 0.2577722283113802 0
0.3959004857786096 -0.3120678220966787 0
0.3081462788186126 0.4070743513265295 0
-0.396584216942786 0.3066379931605243 0
-0.3088666438715131 -0.3971730864405824 0
0.2923273839860845 0.2437108155792398 0
-0.2989110605589007 0.2499266504670595 0
0.1739266620600562 -0.1776011426055962 0
-0.4154642987624887 0.06250000000000097 0
0.171840423222428 0.04227566419078963 0
-0.4226624454742068 -0.1874999999999989 0
-0.4084936490538901 -0.4084936490538899 0
0.4084936490538899 -0.4084936490538901 0
0.4084936490538901 0.4084936490538899 0
-0.4084936490538899 0.4084936490538901 0
0.2301718800130687 -0.06544650815694014 0
-0.1249999999999985 0.3247595264191643 0
-6.036837696399289e-16 0.3247595264191628 0
0.124999999999997 0.3247595264191614 0
-0.2398391675640607 0.3246932292153027 0
0.2489644266062753 0.3253550026152655 0
$EndNodes
$Elements
1 162 1 162
2 0 2 162
1 68 79 38 
2 38 72 68 
3 34 69 62 
4 40 63 59 
5 62 70 34 
6 40 86 63 
7 15 71 14 
8 44 67 65 
9 37 76 67 
10 65 88 44 
11 14 71 38 
12 34 71 15 
13 36 65 64 
14 36 64 63 
15 49 77 66 
16 67 76 66 
17 41 79 68 
18 70 71 34 
19 66 77 64 
20 66 76 49 
21 70 93 71 
22 71 93 72 
23 69 83 62 
24 59 84 40 
25 65 66 64 
26 81 84 43 
27 84 97 43 
28 72 85 68 
29 71 72 38 
30 65 67 66 
31 67 82 37 
32 45 68 46 
33 9 45 33 
34 16 69 34 
35 23 73 35 
36 45 46 33 
37 33 75 8 
38 10 45 9 
39 17 69 16 
40 21 74 39 
41 24 73 23 
42 41 68 45 
43 47 76 75 
44 9 33 8 
45 16 34 15 
46 23 35 22 
47 30 36 29 
48 47 75 33 
49 41 45 10 
50 42 69 17 
51 35 74 22 
52 43 73 24 
53 46 47 33 
54 49 76 47 
55 7 37 6 
56 7 75 37 
57 11 41 10 
58 14 38 13 
59 18 42 17 
60 21 39 20 
61 22 74 21 
62 25 43 24 
63 28 40 27 
64 32 44 31 
65 8 75 7 
66 75 76 37 
67 56 59 57 
68 59 63 57 
69 46 48 47 
70 52 53 50 
71 53 77 50 
72 54 56 53 
73 48 51 50 
74 52 54 53 
75 52 55 54 
76 56 57 53 
77 55 62 61 
78 48 49 47 
79 48 50 49 
80 50 77 49 
81 51 52 50 
82 57 77 53 
83 63 64 57 
84 64 77 57 
85 55 58 54 
86 54 78 56 
87 55 61 58 
88 58 78 54 
89 56 60 59 
90 56 78 60 
91 62 87 70 
92 80 98 42 
93 42 98 83 
94 13 79 12 
95 20 80 19 
96 27 81 26 
97 63 86 36 
98 6 82 5 
99 37 82 6 
100 36 88 65 
101 38 79 13 
102 39 80 20 
103 40 81 27 
104 51 93 87 
105 44 82 67 
106 68 85 46 
107 48 85 51 
108 36 86 29 
109 28 86 40 
110 55 87 62 
111 51 87 52 
112 30 88 36 
113 44 88 31 
114 1 89 32 
115 2 90 11 
116 3 91 18 
117 4 92 25 
118 5 89 1 
119 12 90 2 
120 19 91 3 
121 26 92 4 
122 85 93 51 
123 42 83 69 
124 62 83 61 
125 60 84 59 
126 87 93 70 
127 46 85 48 
128 40 84 81 
129 29 86 28 
130 52 87 55 
131 72 93 85 
132 79 90 12 
133 80 91 19 
134 81 92 26 
135 31 88 30 
136 11 90 41 
137 18 91 42 
138 25 92 43 
139 32 89 44 
140 82 89 5 
141 94 97 60 
142 73 94 35 
143 74 96 39 
144 78 95 94 
145 58 95 78 
146 78 94 60 
147 94 95 35 
148 35 95 74 
149 61 96 58 
150 58 96 95 
151 95 96 74 
152 73 97 94 
153 43 97 73 
154 41 90 79 
155 42 91 80 
156 43 92 81 
157 61 98 96 
158 96 98 39 
159 44 89 82 
160 39 98 80 
161 60 97 84 
162 83 98 61 
$EndElements
