$MeshFormat
4.1 0 8
$EndMeshFormat
$PhysicalNames
1
2 1 "plane"
$EndPhysicalNames
$Entities
4 4 1 0
1 -0.5 -0.5 0 0 
2 0.5 -0.5 0 0 
3 0.5 0.5 0 0 
4 -0.5 0.5 0 0 
1 -0.5005001001 -0.5005001001 -0.0005001000999999999 0.5005001001 -0.4994998999 0.0005001000999999999 0 2 1 -2 
2 0.4994998999 -0.5005001001 -0.0005001000999999999 0.5005001001 0.5005001001 0.0005001000999999999 0 2 2 -3 
3 -0.5005001001 0.4994998999 -0.0005001000999999999 0.5005001001 0.5005001001 0.0005001000999999999 0 2 3 -4 
4 -0.5005001001 -0.5005001001 -0.0005001000999999999 -0.4994998999 0.5005001001 0.0005001000999999999 0 2 4 -1 
0 -0.5000000999999999 -0.5000000999999999 -1e-07 0.5000000999999999 0.5000000999999999 1e-07 1 -1 4 1 2 3 4 
$EndEntities
$Nodes
9 49 1 49
0 1 0 1
1
-0.5 -0.5 0
0 2 0 1
2
0.5 -0.5 0
0 3 0 1
3
0.5 0.5 0
0 4 0 1
4
-0.5 0.5 0
1 1 0 5
5
6
7
8
9
-0.3333333333333334 -0.5 0
0 -0.5 0
0.3333333333333333 -0.5 0
-0.1666666666666667 -0.5 0
0.1666666666666666 -0.5 0
1 2 0 5
10
11
12
13
14
0.5 -0.3333333333333334 0
0.5 0 0
0.5 0.3333333333333333 0
0.5 -0.1666666666666667 0
0.5 0.1666666666666666 0
1 3 0 5
15
16
17
18
19
0.3333333333333334 0.5 0
0 0.5 0
-0.3333333333333333 0.5 0
0.1666666666666667 0.5 0
-0.1666666666666666 0.5 0
1 4 0 5
20
21
22
23
24
-0.5 0.3333333333333334 0
-0.5 0 0
-0.5 -0.3333333333333333 0
-0.5 0.1666666666666667 0
-0.5 -0.1666666666666666 0
2 0 0 25
25
26
27
28
29
30
31
32
33
34
35
36
37
38
39
40
41
42
43
44
45
46
47
48
49
-0.3333333333333333 -0.3333333333333333 0
-0.3333333333333333 -0.1666666666666666 0
-0.3333333333333333 1.98889386961572e-17 0
-0.3333333333333333 0.1666666666666667 0
-0.3333333333333333 0.3333333333333334 0
-0.1666666666666667 -0.3333333333333333 0
-0.1666666666666666 -0.1666666666666666 0
-0.1666666666666667 2.925719244984772e-17 0
-0.1666666666666666 0.1666666666666667 0
-0.1666666666666667 0.3333333333333334 0
-3.574176564504571e-18 -0.3333333333333333 0
1.816772733199481e-17 -0.1666666666666666 0
3.733462305319127e-17 2.763447026209974e-17 0
4.405378107581457e-17 0.1666666666666667 0
1.795233917286087e-17 0.3333333333333334 0
0.1666666666666667 -0.3333333333333334 0
0.1666666666666667 -0.1666666666666667 0
0.1666666666666667 6.908617565524934e-18 0
0.1666666666666667 0.1666666666666667 0
0.1666666666666667 0.3333333333333333 0
0.3333333333333333 -0.3333333333333334 0
0.3333333333333334 -0.1666666666666667 0
0.3333333333333333 -1.908952732034044e-17 0
0.3333333333333334 0.1666666666666667 0
0.3333333333333334 0.3333333333333333 0
$EndNodes
$Elements
1 36 1 36
2 0 3 36
1 1 5 25 22 
2 22 25 26 24 
3 24 26 27 21 
4 21 27 28 23 
5 23 28 29 20 
6 20 29 17 4 
7 5 8 30 25 
8 25 30 31 26 
9 26 31 32 27 
10 27 32 33 28 
11 28 33 34 29 
12 29 34 19 17 
13 8 6 35 30 
14 30 35 36 31 
15 31 36 37 32 
16 32 37 38 33 
17 33 38 39 34 
18 34 39 16 19 
19 6 9 40 35 
20 35 40 41 36 
21 36 41 42 37 
22 37 42 43 38 
23 38 43 44 39 
24 39 44 18 16 
25 9 7 45 40 
26 40 45 46 41 
27 41 46 47 42 
28 42 47 48 43 
29 43 48 49 44 
30 44 49 15 18 
31 7 2 10 45 
32 45 10 13 46 
33 46 13 11 47 
34 47 11 14 48 
35 48 14 12 49 
36 49 12 3 15 
$EndElements
